<svg version="1.2" xmlns="http://www.w3.org/2000/svg" viewBox="0 0 1001 1417" width="1001" height="1417">
	<style>
		.s0 { fill: #000000 } 
		.s1 { fill: #ffffff } 
	</style>
	<g id="Folder 5">
		<path id="Layer copy 4" class="s0" d="m1000.61 905.37v511.63h-323.61v-511.63z"/>
		<path id="X" class="s1" aria-label="X"  d="m868.8 1301.2l-45-64.5-35 49.3q-11.1 17-11.1 23.4 0 6.9 8.3 9.4l15.4 1.8q10.1 1.1 10.1 8.6 0 8-14.4 8l-9.7-0.4q-12.6 0-27.4-0.7-14.7-1.1-15.4-1.1-5.8 0-9.8 0-3.9 0-15.4 1.4l-8.7 0.4q-10.1 0-10.1-7.6 0-5 2.2-6.1 2.2-1.1 17.6-3.2 22.7-3.3 48.6-38.5l37.1-50.1q4.7-6.8 4.7-9.3-0.4-1.1-0.4-1.5-0.7-1.4-2.5-4.3l-57.2-76.3q-14.8-19.8-21.3-23.8-6.1-4.3-18.7-5.4-12.2-1.4-12.2-8.3 0-7.9 13.7-7.9l13.6 0.7q2.2 0.4 13 0.8 10.8 0 18.4 0h15.8q23.4 0 40-1.5l19-1.4q12.3 0 12.3 8.3 0 4.6-4 6.8-3.6 2.2-14.4 2.2-10.1 0-10.1 7.2 0 3.6 4 9.3l34.9 52.2 27.4-39.2q9-12.3 9-19.8 0-5.4-3.6-7.2-3.3-2.2-13.7-3.6-10.1-1.5-10.1-8.3 0-7.9 15.5-7.9l11.5 0.3 29.5 1.1 28.1-1.4 11.9-0.4q14.4 0 14.4 7.9 0 5.4-5.8 7.6l-21.6 2.2q-19.4 0-59.4 52.5-19 24.9-19 29.5 0 1.5 3.6 6.5l64.8 90.7q14 19.1 19 23.4 5.1 4.4 18.4 8.3 6.1 1.5 6.5 7.2 0 7.9-13.3 7.9h-4.4l-59.4-1q-10.4 0-18.7 0-7.9 0-20.1 1.4l-8.3 0.4q-10.8 0-10.8-8 0-9 15.5-9 12.6 0 12.6-7.2 0-3.9-5.4-11.8z"/>
		<path id="Extreme" class="s1" aria-label="Extreme"  d="m703.7 1049l-9.3 0.4q-0.9 0-1.2-0.1-0.2-0.1-0.2-0.7v-1.8q0-0.4 0.1-0.5 0.2-0.2 0.6-0.2l2.5-0.3q2.3-0.3 3.2-2 1-1.8 1-5.9v-32.7q0-4.1-1-5.8-0.9-1.8-3.2-2.1l-2.5-0.3q-0.4 0-0.6-0.2-0.1-0.1-0.1-0.5v-1.9q0-0.5 0.2-0.6 0.3-0.2 1.2-0.1l9.7 0.4h6.9-4.1l27.3-0.3q0.4 0 0.6 0.2 0.2 0.2 0.2 0.8v5.8 5.8q0 0.3-0.2 0.5-0.2 0.2-0.5 0.2h-1.7q-0.2 0-0.5-0.2-0.2-0.2-0.2-0.5l-0.5-3.1q-0.6-3.1-3-4.3-2.5-1.2-8-1.2h-3.1q-3.8 0-5.1 1.2-1.2 1.3-1.2 5.1v14.3h9.4q2.3 0 3.5-0.8 1.2-0.9 1.7-3l0.6-2.2q0-0.3 0.3-0.5 0.2-0.3 0.4-0.3h1.8q0.3 0 0.5 0.3 0.3 0.2 0.3 0.5-0.6 4.6-0.6 7.9 0 3.3 0.6 7.9 0 0.3-0.3 0.6-0.2 0.2-0.5 0.2h-1.8q-0.2 0-0.4-0.2-0.3-0.3-0.3-0.6l-0.6-2.2q-0.5-2.1-1.7-2.9-1.2-0.9-3.5-0.9h-9.4v15.7q0 5.2 1.1 6.3 1.1 1.1 6.3 1.1h2.5q6.9 0 10.4-1.3 3.4-1.3 5.1-4.5l1.3-2.7q0.2-0.3 0.4-0.4 0.3-0.1 0.6-0.1l1.6 0.5q0.3 0.1 0.4 0.4 0.2 0.2 0.1 0.6l-1.8 5.2-1.8 5.3q-0.3 1-0.8 1l-29.8-0.3h4.4zm49.9-10.8l4.9-6.5-6.6-9.8q-2.2-3.2-3.6-4.6-1.4-1.4-2.8-1.7l-1.3-0.3q-0.6-0.1-0.6-0.6v-1.7q0-0.4 0.3-0.6 0.2-0.1 1-0.1 4.8 0.4 8.3 0.4 3.5 0 8.2-0.4 0.8-0.1 1.1 0.1 0.3 0.1 0.3 0.6v1.7q0 0.5-0.7 0.6l-1.6 0.3q-1.4 0.3-1.5 1.1-0.1 0.9 1.1 2.7l4.6 6.7 5.1-6.7q1.4-1.8 1.3-2.7 0-0.8-1.5-1.1l-1.5-0.3q-0.7-0.1-0.7-0.6v-1.7q0-0.5 0.3-0.6 0.3-0.2 1-0.1 3.2 0.4 5.6 0.4 2.3 0 5.6-0.4 0.8 0 1.1 0.1 0.2 0.2 0.2 0.6v1.7q0 0.5-0.8 0.6l-1.5 0.3q-1.5 0.3-3.4 2.1-1.9 1.7-5.1 5.8l-4 5.2 7.6 11.1q2.2 3.2 3.6 4.6 1.4 1.4 2.7 1.7l1.3 0.3q0.7 0.1 0.7 0.6v1.7q0 0.5-0.3 0.7-0.3 0.1-1.1 0-4.8-0.4-8.3-0.4-3.4 0-8.2 0.4-0.8 0.1-1.1 0-0.2-0.2-0.2-0.7v-1.7q0-0.5 0.6-0.6l1.6-0.3q1.4-0.3 1.5-1.1 0.1-0.9-1.1-2.7l-5.3-7.8-5.9 7.8q-1.4 1.8-1.4 2.7 0 0.8 1.5 1.1l1.6 0.3q0.4 0 0.5 0.2 0.2 0.1 0.2 0.4v1.7q0 0.5-0.3 0.7-0.3 0.1-1.1 0-3.2-0.4-5.6-0.4-2.5 0-5.8 0.4-0.8 0-1-0.1-0.3-0.1-0.3-0.6v-1.7q0-0.5 0.9-0.6l1.5-0.3q1.4-0.2 3.3-2 2-1.8 5.1-5.9zm36.5 2.4v-21.4q0-1.2-0.8-2-0.8-0.9-2.1-0.9h-1q-0.5 0-0.8-0.2-0.3-0.3-0.3-0.8v0.1q0-0.5 0.3-1 0.2-0.5 0.6-0.8 3.4-3 5.7-5.3l5.6-5.9q0.3-0.2 0.6-0.4 0.4-0.2 0.7-0.2 0.3 0 0.5 0.2 0.2 0.2 0.2 0.5v10.2h11.2q0.5 0 0.5 0.6v2.5q0 0.5-0.5 0.5h-11.2v21.5q0 2.6 1.6 4.5 1.7 1.9 4 1.9 1.4 0 3-0.6 1.5-0.6 2.4-1.5 0.3-0.3 0.7-0.3 0.3 0 0.7 0.3 0.3 0.3 0.3 0.8 0.1 0.4-0.1 0.8-1.6 3-4.8 4.7-3.1 1.7-7 1.7-5 0-7.5-2.4-2.5-2.3-2.5-7.1zm30.8-0.8v-14q0-3.3-0.8-4.5-0.7-1.1-3.4-2-0.6-0.2-0.9-0.5-0.2-0.2-0.2-0.6v-0.5q0-0.6 1.1-1.1 3.6-1.1 6.1-2.2 2.4-1.2 5.7-3.2 0.6 0 0.8 0.2 0.2 0.2 0.2 0.6v8.8q4-5 6-6.8 2.6-2.4 5-2.4 2.3 0 3.8 1.4 1.5 1.4 1.5 3.3 0 2.6-1.4 4.1-1.4 1.3-3.8 1.4-1.2 0-2.5-0.9-1.3-1-2.5-1-0.9 0-1.9 0.7-0.9 0.6-2.6 2.3-0.8 0.9-1.6 2v14.9q0 3.8 0.6 4.9 0.6 1.1 2.9 1.4l2 0.3q0.8 0.1 0.8 0.6v1.7q0 0.5-0.3 0.6-0.2 0.1-1 0.1-5-0.4-8.6-0.4-3.6 0-8.6 0.4-0.7 0-1-0.1-0.3-0.1-0.3-0.6v-1.7q0-0.5 0.7-0.6l1.5-0.3q1.7-0.3 2.2-1.4 0.5-1.1 0.5-4.9zm43.5 10.3q-6.4 0-10.9-5.3-4.4-5.3-4.4-12.9 0-8.5 5.2-14.4 5.2-5.9 12.7-5.9 6.7 0 10.2 3.3 3.4 3.2 3.4 9.3 0.1 1.6-0.3 1.9-0.3 0.4-1.8 0.4l-20.5 0.6v1.2q0 6.6 3.5 10.4 3.5 3.9 9.4 3.9 2.3 0 4.3-1.1 1.7-1 3.2-2.7 0.2-0.2 0.4-0.3 0.3 0 0.5 0.2l0.9 1.1q0.2 0.2 0.2 0.6 0 0.3-0.1 0.5-2.4 4.3-6.4 6.7-4.2 2.5-9.5 2.5zm-6.1-26.6l9.5-0.3q2.8-0.1 3.7-1.2 0.9-1.2-0.3-3.5-1.6-3.3-5.3-3.3h-0.1q-3.8 0-5.8 3.4-1.1 1.9-1.7 4.9zm30.6 16.3v-14q0-3.4-0.7-4.5-0.7-1.2-3.4-2-0.7-0.2-0.9-0.5-0.2-0.2-0.2-0.6v-0.5q0-0.4 0.2-0.6 0.2-0.2 0.9-0.5 3.7-1.1 6.3-2.2 2.5-1.2 5.9-3.2 0.6 0 0.8 0.2 0.3 0.2 0.3 0.6v6.5q2.1-2.2 4.3-3.7 4.7-3.2 8.9-3.2 4.8 0 7.6 2.8 1.7 1.7 2.4 4.4 2.3-2.3 4.7-4 4.7-3.2 8.9-3.2 4.8 0 7.6 2.8 2.7 2.8 2.7 7.5v17.9q0 3.8 0.5 4.9 0.5 1.1 2.3 1.4l1.6 0.3q0.7 0.1 0.7 0.6v1.7q0 0.5-0.2 0.6-0.3 0.1-1.1 0.1-4.8-0.4-8.2-0.4-3.4 0-8.2 0.4-0.8 0.1-1.1 0-0.2-0.2-0.2-0.7v-1.7q0-0.5 0.6-0.6l1.5-0.3q1.8-0.3 2.2-1.4 0.5-1.1 0.5-4.9v-15.8q0-2.9-1.7-4.6-1.7-1.7-4.6-1.7-3.1 0-5.8 1.9-1.3 0.9-2.3 2.1v18.1q0 3.8 0.4 4.9 0.5 1.1 2.2 1.4l1.5 0.3q0.7 0.1 0.7 0.6v1.7q0 0.5-0.3 0.7-0.3 0.1-1 0-4.7-0.4-8.1-0.4-3.4 0-8.1 0.4-0.8 0.1-1.1 0-0.2-0.2-0.2-0.7v-1.7q0-0.5 0.6-0.6l1.6-0.3q1.7-0.3 2.1-1.4 0.5-1.1 0.5-4.9v-13.8q0-3.9-1.7-6.1-1.7-2.2-4.6-2.2-3.1 0-5.8 1.9-1.3 0.9-2.3 2.1v18.1q0 3.8 0.4 4.9 0.5 1.1 2.2 1.4l1.5 0.3q0.7 0.1 0.7 0.6v1.7q0 0.5-0.3 0.7-0.2 0.1-1 0-4.7-0.4-8.1-0.4-3.4 0-8.1 0.4-0.8 0.1-1.1 0-0.2-0.2-0.2-0.7v-1.7q0-0.5 0.6-0.6l1.6-0.3q1.7-0.3 2.1-1.4 0.5-1.1 0.5-4.9zm80.5 10.3q-6.4 0-10.9-5.3-4.4-5.3-4.4-12.9 0-8.5 5.2-14.4 5.2-5.9 12.7-5.9 6.7 0 10.2 3.3 3.4 3.2 3.4 9.3 0.1 1.6-0.3 1.9-0.3 0.4-1.8 0.4l-20.5 0.6v1.2q0 6.6 3.5 10.4 3.5 3.9 9.4 3.9 2.3 0 4.3-1.1 1.7-1 3.2-2.7 0.2-0.2 0.4-0.3 0.3 0 0.5 0.2l0.9 1.1q0.2 0.2 0.2 0.6 0 0.3-0.1 0.5-2.4 4.3-6.4 6.7-4.2 2.5-9.5 2.5zm-6.1-26.6l9.5-0.3q2.8-0.1 3.7-1.2 0.9-1.2-0.3-3.5-1.6-3.3-5.3-3.3h-0.1q-3.8 0-5.8 3.4-1.1 1.9-1.7 4.9z"/>
	</g>
	<g id="Folder 4">
		<path id="Layer copy 3" class="s0" d="m323.61 905.37v511.63h-323.61v-511.63z"/>
		<path id="H" class="s1" aria-label="H"  d="m55.2 1094.9h62.3v89.6h90v-89.6h62.6v240.1h-62.6v-97.2h-90v97.2h-62.3z"/>
		<path id="High" class="s1" aria-label="High"  d="m79.6 995.6h13.8v20h20v-20h14v53.4h-14v-21.6h-20v21.6h-13.8zm57.8 53.4v-35.8h12.8v35.8zm1.3-45.6q-2.1-2.1-2.1-5.1 0-2.9 2.1-5 2.1-2.2 5.1-2.2 3 0 5 2.2 2.2 2.1 2.2 5 0 3-2.2 5.1-2 2.1-5 2.1-3 0-5.1-2.1zm47.1 13.5v-3.7h12.8v33.5q0 4.8-0.9 8.3-0.9 3.4-3.9 6.5-5.7 5.8-15.8 5.8-10.5 0-16.7-6.3-3.3-3.5-3.9-7.5h14.2q1.2 3.7 6 3.7 3.6 0 5.7-2 2.5-2.4 2.5-6.6v-3.6q-4.4 4.7-10.7 4.7-8.3 0-13.2-5.1-4.9-5.1-4.9-13 0-8.5 5.2-14 5.2-5.4 13-5.4 6.5 0 10.6 4.7zm-7.6 5.9q-3.2 0-5.6 2.4-2.5 2.6-2.5 5.8 0 3.3 2.5 5.8 2.3 2.3 5.7 2.3 3.4 0 5.8-2.4 2.4-2.4 2.4-5.7 0-3.3-2.6-5.9-2.3-2.3-5.7-2.3zm42 26.2h-12.8v-58.4h12.8v27.1q1.8-2.3 4-3.5 3-1.8 7.4-1.8 6.7 0 10.5 3.8 2.2 2.2 2.7 4.5 0.7 2.3 0.7 5.5v22.8h-12.8v-18.1q0-5.2-1.6-7-1.4-1.5-4.1-1.5-3 0-4.6 1.5-2.2 2-2.2 5.9z"/>
	</g>
	<g id="Folder 3">
		<path id="Layer copy 2" class="s0" d="m661.61 453v511.63h-323.61v-511.63z"/>
		<path id="M" class="s1" aria-label="M"  d="m367.6 883h57.3v-129.2c0-10.5-1.1-51.9-1.1-51.9h0.7c0 0 9 38.9 11.9 48.3l36.7 132.8h52.6l37.1-133.2c2.8-9.4 11.8-47.9 11.8-47.9h0.8c0 0-1.1 41.1-1.1 51.5v129.6h58.3v-257.4h-86.4l-31.7 112.7c-4.3 16.2-14.4 58.7-14.4 58.7h-0.7c0 0-10.1-42.5-14.8-58.7l-31.3-112.7h-85.7z"/>
		<path id="Medium" class="s1" aria-label="Medium"  d="m357.9 597h12.7v-28.7c0-2.3-0.2-11.5-0.2-11.5h0.2c0 0 2 8.6 2.6 10.7l8.2 29.5h11.6l8.3-29.6c0.6-2.1 2.6-10.6 2.6-10.6h0.2c0 0-0.3 9.1-0.3 11.4v28.8h13v-57.2h-19.2l-7 25c-1 3.6-3.2 13.1-3.2 13.1h-0.2c0 0-2.2-9.5-3.3-13.1l-6.9-25h-19.1zm85.2 1.2c5.2 0 9.4-1.4 12.8-3.8 3.6-2.4 6-6 6.9-9.6h-12.7c-1.1 2.5-3.4 4-6.8 4-5.4 0-8.4-3.4-9.2-8.9h29.4c0.1-8.3-2.3-15.5-7.2-19.9-3.5-3.2-8.1-5.2-14-5.2-12.5 0-21 9.4-21 21.6 0 12.4 8.3 21.8 21.8 21.8zm-8.9-26.1c0.8-4.9 3.4-8 8.4-8 4.2 0 7.2 3.1 7.7 8zm50.1 26.2c5.3 0 9.6-2.6 12-6.8h0.2v5.5h12.5v-57.2h-13.1v20.9h-0.2c-2.4-3.5-5.7-5.9-11.4-5.9-10.6 0-18 8.9-18 21.7 0 13.7 7.5 21.8 18 21.8zm3.3-10.3c-5 0-8.1-4.5-8.1-11.6 0-6.9 3.1-11.7 8.3-11.7 5.7 0 8.5 4.9 8.5 11.8 0 6.7-3.2 11.5-8.7 11.5zm27.6 9h13v-41h-13zm0-46.6h13v-10.6h-13zm34.1 47.9c5.6 0 9.2-2.3 12.2-6.3h0.2v5.1h12.5v-41h-13v22.9c0 4.9-2.7 8.2-7.2 8.2-4.2 0-6.2-2.4-6.2-6.9v-24.2h-12.9v26.9c0 9.1 4.9 15.3 14.4 15.3zm30.9-1.2h13v-23c0-4.9 2.4-8.3 6.5-8.3 3.9 0 5.8 2.6 5.8 7v24.3h13v-23c0-4.9 2.3-8.3 6.5-8.3 3.9 0 5.7 2.6 5.7 7v24.3h13.1v-26.7c0-9.2-4.7-15.5-13.9-15.5-5.3 0-9.7 2.3-12.9 7.2h-0.2c-2.1-4.4-6.1-7.2-11.5-7.2-5.9 0-9.8 2.8-12.4 7.1h-0.2v-5.9h-12.5z"/>
	</g>
	<g id="Folder 2">
		<path id="Layer copy" class="s0" d="m1001.61 0v511.63h-323.61v-511.63z"/>
		<path id="L" class="s1" aria-label="L"  d="m746.4 430v-257.7h79.6v194.2h124.3v63.5z"/>
		<path id="Low" class="s1" aria-label="Low"  d="m755.9 144v-57.3h17.7v43.2h27.6v14.1zm50-20.6q0-9.5 6.4-15.7 6.4-6.1 17.3-6.1 12.4 0 18.8 7.2 5.1 5.8 5.1 14.3 0 9.6-6.3 15.7-6.4 6.1-17.6 6.1-10 0-16.2-5-7.5-6.3-7.5-16.5zm15.9-0.1q0 5.6 2.2 8.2 2.3 2.7 5.7 2.7 3.4 0 5.6-2.6 2.2-2.6 2.2-8.4 0-5.4-2.2-8-2.2-2.7-5.5-2.7-3.5 0-5.7 2.7-2.3 2.7-2.3 8.1zm48.7 20.7l-15.4-41.5h15.4l6.7 26.1 8.4-26.1h14.4l8.7 26.1 6.7-26.1h15.3l-15.3 41.5h-14.1l-8.4-25-8.2 25z"/>
	</g>
	<g id="Layer 1">
		<g id="Folder 1">
			<path class="s0" d="m323.61 0v511.63h-323.61v-511.63z"/>
			<path id="N" class="s1" aria-label="N"  d="m268.8 174.1v255.9h-59.2l-93.7-161-1.1 0.3v160.7h-59.4v-255.9h59.4l93.7 160.8 1.1-0.3v-160.5z"/>
			<path id="Minimal" class="s1" aria-label="Minimal"  d="m37.8 87.1l12.8 39.8h0.2l12.9-39.8h17.4v56.9h-13.2v-36.6l-0.2-0.1-12.6 36.7h-8.8l-12.3-36.1h-0.3v36.1h-13.2v-56.9zm65.8 14.6v42.3h-13.3v-42.3zm0-18.6v8.8h-13.2v-8.8zm7.9 18.6h12.4l0.5 6q2.1-3.2 5.1-5 3.1-1.7 6.8-1.7 6.2 0 9.7 4.2 3.5 4.2 3.5 13.4v25.4h-13.2v-25.5q0-4-1.3-5.7-1.2-1.7-3.7-1.7-2.1 0-3.8 0.8-1.7 0.7-2.8 2.1v30h-13.2zm59.1 0v42.3h-13.3v-42.3zm0-18.7v8.9h-13.2v-8.9zm8.2 18.7h12.4l0.5 5.6q2-3.1 5-4.7 3-1.7 6.9-1.7 4 0 6.8 1.7 2.9 1.8 4.3 5.3 2-3.3 5-5.1 3.1-1.9 7.2-1.9 6.2 0 9.7 4.5 3.5 4.4 3.5 13.6v25h-13.2v-25q0-4.5-1.3-6.2-1.2-1.7-3.8-1.7-1.9 0-3.4 0.7-1.4 0.6-2.4 1.9 0 0.6 0 1.1 0 0.5 0 1v28.2h-13.2v-25q0-4.6-1.2-6.2-1.3-1.7-3.9-1.7-1.8 0-3.3 0.7-1.4 0.6-2.4 1.9v30.3h-13.2zm106.4 42.2h-13q-0.8-1.3-1.3-3-0.5-1.7-0.8-3.5-1.7 3.3-4.2 5.4-2.5 2-6.6 2-6.6 0-10.4-3.4-3.6-3.5-3.6-9.4 0-6.3 4.7-9.7 4.7-3.4 14.3-3.4h5.5v-3q0-2.7-1.3-4.2-1.3-1.4-4-1.4-2.3 0-3.4 1.1-1.1 1-1.1 3.3h-12.8l-0.1-0.3q-0.3-5.7 4.8-9.6 5.1-3.9 13.5-3.9 7.8 0 12.7 3.9 4.9 3.9 4.9 11.2v15.9q0 3.4 0.5 6.3 0.6 2.8 1.7 5.7zm-22.3-8.6q2.4 0 4.3-1.1 1.8-1.1 2.6-2.7v-5.6h-5.3q-3.2 0-4.6 1.5-1.4 1.6-1.4 3.9 0 1.8 1.2 2.9 1.2 1.1 3.2 1.1zm40.7-52.3v60.9h-13.2v-60.9z"/>
		</g>
	</g>
</svg>